<svg version="1.1" xmlns="http://www.w3.org/2000/svg" width="100%" height="100%" viewBox="0 0 32 32" fit="" preserveAspectRatio="xMidYMid meet" focusable="false">
<path d="M30.49 1.566l-6.288-1.453c-0.917-0.212-1.859 0.262-2.233 1.129l-2.901 6.768c-0.343 0.792-0.112 1.728 0.555 2.277l3.362 2.751c-2.121 4.317-5.633 7.835-9.956 9.956l-2.751-3.362c-0.549-0.667-1.485-0.898-2.277-0.555l-6.762 2.901c-0.867 0.374-1.341 1.31-1.129 2.227l1.447 6.281c0.206 0.892 0.992 1.516 1.903 1.516 15.732 0 28.538-12.738 28.538-28.538 0-0.911-0.624-1.697-1.51-1.896zM3.499 30.004l-1.435-6.213 6.699-2.869 3.712 4.541c6.462-3.032 9.962-6.543 12.981-12.981l-4.541-3.712 2.869-6.699 6.213 1.435c-0.012 14.628-11.871 26.48-26.498 26.498z"></path>
</svg>